<svg width="32" height="32" viewBox="0 0 32 32" fill="none" xmlns="http://www.w3.org/2000/svg">
  <circle cx="16" cy="11" r="9" fill="url(#g1)"/>
  <path d="M16 20C16 20 7 13.5 7 11C7 6.03 11.03 2 16 2C20.97 2 25 6.03 25 11C25 13.5 16 20 16 20Z" fill="url(#g2)" stroke="#1e293b" stroke-width="0.5"/>
  <path d="M13 9L11 11L13 13" stroke="white" stroke-width="1.5" stroke-linecap="round" stroke-linejoin="round"/>
  <path d="M19 9L21 11L19 13" stroke="white" stroke-width="1.5" stroke-linecap="round" stroke-linejoin="round"/>
  <path d="M17 8L15 14" stroke="white" stroke-width="1.5" stroke-linecap="round"/>
  <path d="M16 20Q10 23 6 27Q5 28 6 29" stroke="url(#g3)" stroke-width="1.5" stroke-linecap="round" fill="none"/>
  <path d="M16 20Q22 23 26 27Q27 28 26 29" stroke="url(#g3)" stroke-width="1.5" stroke-linecap="round" fill="none"/>
  <circle cx="6" cy="29" r="1.5" fill="#8b5cf6"/>
  <circle cx="16" cy="24" r="1.5" fill="#8b5cf6"/>
  <circle cx="26" cy="29" r="1.5" fill="#8b5cf6"/>
  <defs>
    <linearGradient id="g1" x1="7" y1="2" x2="25" y2="20">
      <stop offset="0%" stop-color="#3b82f6"/>
      <stop offset="100%" stop-color="#8b5cf6"/>
    </linearGradient>
    <linearGradient id="g2" x1="7" y1="2" x2="25" y2="20">
      <stop offset="0%" stop-color="#6366f1"/>
      <stop offset="100%" stop-color="#a855f7"/>
    </linearGradient>
    <linearGradient id="g3" x1="6" y1="20" x2="26" y2="29">
      <stop offset="0%" stop-color="#8b5cf6"/>
      <stop offset="100%" stop-color="#ec4899"/>
    </linearGradient>
  </defs>
</svg>
